<?xml version="1.0"?>
<svg xmlns="http://www.w3.org/2000/svg" viewBox="0 0 64 64" width="512" height="512"><g id="flat"><rect x="3" y="3" width="58" height="58" style="fill:#7fcac9"/><rect x="3" y="3" width="16" height="8" style="fill:#ffd782"/><rect x="19" y="3" width="42" height="8" style="fill:#3b73a5"/><circle cx="32" cy="29" r="14" style="fill:#d1f5c9"/><rect x="6" y="6" width="2" height="2" style="fill:#3b73a5"/><rect x="10" y="6" width="2" height="2" style="fill:#3b73a5"/><rect x="14" y="6" width="2" height="2" style="fill:#3b73a5"/><rect x="13" y="47" width="38" height="8" style="fill:#f4f4e6"/><rect x="25" y="25" width="14" height="10" style="fill:#da1c4b"/><polygon points="38 25 36 25 36 22 28 22 28 25 26 25 26 20 38 20 38 25" style="fill:#3b73a5"/><rect x="31" y="31" width="2" height="4" style="fill:#fff"/><path d="M32,32a2,2,0,1,1,2-2A2,2,0,0,1,32,32Zm0-2h0Z" style="fill:#fff"/><rect x="16" y="50" width="6" height="2" style="fill:#da1c4b"/><rect x="24" y="50" width="2" height="2" style="fill:#da1c4b"/><rect x="28" y="50" width="2" height="2" style="fill:#da1c4b"/><rect x="32" y="50" width="2" height="2" style="fill:#da1c4b"/><rect x="36" y="50" width="2" height="2" style="fill:#da1c4b"/><polygon points="8 18 6 18 6 14 12 14 12 16 8 16 8 18" style="fill:#fff"/><rect x="14" y="14" width="2" height="2" style="fill:#fff"/><rect x="56" y="14" width="2" height="2" style="fill:#fff"/><rect x="43" y="47" width="8" height="8" style="fill:#3b73a5"/></g></svg>
