<svg id="Layer_1" enable-background="new 0 0 512 512" height="512" viewBox="0 0 512 512" width="512" xmlns="http://www.w3.org/2000/svg"><g><g><path d="m460.799 133.41v284.8h-409.598v-284.8l204.799-116.32z" fill="#eef0f5"/><path d="m460.799 133.41v284.8h-409.598v-35h374.352c7.872 0 14.266-6.4 14.266-14.29v-195.95c0-5.98-2.957-11.58-7.892-14.95l-175.927-119.93v-21z" fill="#dae1ea"/><path d="m511.339 150.29-5.595 9.94-5.964 10.61c-1.389 2.47-4.516 3.35-6.983 1.95l-236.797-134.7-236.797 132.39c-2.468 1.39-5.595.52-6.983-1.95l-5.954-10.59-5.604-9.96c-1.389-2.47-.52-5.6 1.948-6.99l250.873-140.33c1.558-.88 3.477-.88 5.035 0l250.873 142.64c2.467 1.4 3.336 4.52 1.948 6.99z" fill="#ff4656"/><path d="m505.744 160.23-5.964 10.61c-1.389 2.47-4.516 3.35-6.983 1.95l-236.797-134.7-236.797 132.39c-2.468 1.39-5.595.52-6.983-1.95l-5.954-10.59 247.217-138.28c1.558-.88 3.477-.88 5.035 0z" fill="#d93c49"/><path d="m484.775 406.52v23.57c0 2.84-2.298 5.14-5.125 5.14h-448.299c-2.827 0-5.125-2.3-5.125-5.14v-23.57c0-2.83 2.298-5.13 5.125-5.13h448.299c2.827 0 5.125 2.3 5.125 5.13z" fill="#56788b"/><path d="m484.775 413.18v16.91c0 2.84-2.298 5.14-5.125 5.14h-448.299c-2.827 0-5.125-2.3-5.125-5.14v-16.91c0 2.83 2.298 5.13 5.125 5.13h448.299c2.827 0 5.125-2.3 5.125-5.13z" fill="#415e6f"/><g><g><path d="m148.376 217.378v56.27c0 1.93-1.568 3.5-3.497 3.5h-56.184c-1.928 0-3.497-1.57-3.497-3.5v-56.27c0-1.93 1.568-3.5 3.497-3.5h56.185c1.927 0 3.496 1.57 3.496 3.5z" fill="#f9d11f"/><path d="m124.28 213.878v17.99c0 4.15-3.357 7.5-7.493 7.5s-7.493-3.35-7.493-7.5v-17.99z" fill="#ff4656"/></g><g><path d="m241.185 217.378v56.27c0 1.93-1.568 3.5-3.497 3.5h-56.185c-1.928 0-3.497-1.57-3.497-3.5v-56.27c0-1.93 1.568-3.5 3.497-3.5h56.185c1.928 0 3.497 1.57 3.497 3.5z" fill="#f9d11f"/><path d="m217.088 213.878v17.99c0 4.15-3.357 7.5-7.493 7.5s-7.493-3.35-7.493-7.5v-17.99z" fill="#ff4656"/></g><g><path d="m333.993 217.378v56.27c0 1.93-1.568 3.5-3.497 3.5h-56.185c-1.928 0-3.497-1.57-3.497-3.5v-56.27c0-1.93 1.568-3.5 3.497-3.5h56.185c1.929 0 3.497 1.57 3.497 3.5z" fill="#f9d11f"/><path d="m309.897 213.878v17.99c0 4.15-3.357 7.5-7.493 7.5s-7.493-3.35-7.493-7.5v-17.99z" fill="#ff4656"/></g><g><path d="m426.802 217.378v56.27c0 1.93-1.568 3.5-3.497 3.5h-56.185c-1.928 0-3.497-1.57-3.497-3.5v-56.27c0-1.93 1.568-3.5 3.497-3.5h56.185c1.929 0 3.497 1.57 3.497 3.5z" fill="#f9d11f"/><path d="m402.706 213.878v17.99c0 4.15-3.357 7.5-7.493 7.5s-7.493-3.35-7.493-7.5v-17.99z" fill="#ff4656"/></g></g><g><g><path d="m241.185 126.811v56.27c0 1.93-1.568 3.5-3.497 3.5h-56.185c-1.928 0-3.497-1.57-3.497-3.5v-56.27c0-1.93 1.568-3.5 3.497-3.5h56.185c1.928 0 3.497 1.57 3.497 3.5z" fill="#f9d11f"/><path d="m217.088 123.311v17.99c0 4.15-3.357 7.5-7.493 7.5s-7.493-3.35-7.493-7.5v-17.99z" fill="#ff4656"/></g><g><path d="m333.993 126.811v56.27c0 1.93-1.568 3.5-3.497 3.5h-56.185c-1.928 0-3.497-1.57-3.497-3.5v-56.27c0-1.93 1.568-3.5 3.497-3.5h56.185c1.929 0 3.497 1.57 3.497 3.5z" fill="#f9d11f"/><path d="m309.897 123.311v17.99c0 4.15-3.357 7.5-7.493 7.5s-7.493-3.35-7.493-7.5v-17.99z" fill="#ff4656"/></g></g></g><g><path d="m399.369 401.39v75.72c0 4.14-3.358 7.5-7.495 7.5h-60.392c-4.137 0-7.495-3.36-7.495-7.5v-131.08l40.764 29.94z" fill="#2bbb66"/><path d="m399.369 401.39v75.72c0 4.14-3.358 7.5-7.495 7.5h-21.217c4.137 0 7.495-3.36 7.495-7.5v-75.72c0-1.3-.34-2.59-.989-3.72l-12.412-21.7z" fill="#249e55"/><path d="m399.369 401.39h-75.382v-55.36c0-4.14 3.358-7.5 7.495-7.5h28.732c2.688 0 5.167 1.44 6.506 3.77l31.66 55.37c.65 1.13.989 2.42.989 3.72z" fill="#99e7fa"/><path d="m338.978 318.06v159.05c0 4.14-3.348 7.5-7.495 7.5h-211.347c-4.137 0-7.495-3.36-7.495-7.5v-159.05c0-4.14 3.358-7.5 7.495-7.5h211.346c4.148 0 7.496 3.36 7.496 7.5z" fill="#2bbb66"/><path d="m338.978 318.06v159.05c0 4.14-3.348 7.5-7.495 7.5h-211.347c-4.137 0-7.495-3.36-7.495-7.5v-12.5h195.856c4.147 0 7.495-3.36 7.495-7.5v-139.05c0-4.14-3.348-7.5-7.495-7.5h22.985c4.148 0 7.496 3.36 7.496 7.5z" fill="#249e55"/><circle cx="181.165" cy="484.612" fill="#415e6f" r="27.389"/><circle cx="331.487" cy="484.612" fill="#415e6f" r="27.389"/><path d="m271.632 392.282-21.367-21.371c-2.928-2.928-7.674-2.927-10.6.002s-2.925 7.678.002 10.607l8.565 8.566h-62.942c-4.139 0-7.495 3.358-7.495 7.5s3.356 7.5 7.495 7.5h62.944l-8.565 8.567c-2.928 2.928-2.929 7.677-.002 10.606 1.463 1.465 3.382 2.198 5.301 2.198 1.918 0 3.835-.732 5.299-2.196l21.367-21.372c1.406-1.406 2.196-3.314 2.196-5.304s-.791-3.896-2.198-5.303z" fill="#fff"/><path d="m399.369 401.39h-21.217c0-1.3-.34-2.59-.989-3.72l-31.66-55.37c-1.339-2.33-3.818-3.77-6.506-3.77h21.217c2.688 0 5.167 1.44 6.506 3.77l31.66 55.37c.65 1.13.989 2.42.989 3.72z" fill="#4dd4f7"/></g></g></svg>